<svg width="70" height="19" viewBox="0 0 70 19" fill="none" xmlns="http://www.w3.org/2000/svg">
<path d="M0 18.5V1.18892e-05L9.33311 0C12.1736 1.18892e-05 12.1736 0.822171 12.1736 4.11112V10.2778C10.2658 11.0101 10.0727 11.8004 10.5505 13.5667L12.1736 16.0333V18.5H9.33311L5.68103 13.5667C5.20556 11.812 4.93925 11.5923 4.46366 13.5667V18.5L0 18.5Z" fill="#D9D9D9"/>
<path d="M14.6084 4.93334C14.6084 4.93334 20.7219 4.95152 23.5357 4.93334V8.63334V13.1556H16.6373V16.0333H23.5357V18.5L14.6084 18.5V15.2111V6.9889V4.93334Z" fill="#D9D9D9"/>
<path d="M26.3762 18.0889V1.18892e-05H29.6225V5.34445H33.6804V8.63334H29.6225V12.7444C29.4156 15.6888 31.0792 16.0155 34.4919 14.3889V18.0889L28.8109 18.5L26.3762 18.0889Z" fill="#D9D9D9"/>
<path d="M35.7093 5.34445H37.7382V12.7444C38.1563 15.0684 38.9458 15.4818 40.9845 15.2111C42.9394 14.9828 43.7177 14.5149 44.2308 12.7444V5.75556H46.2598V18.5H45.0424L44.2308 17.2667L43.4193 18.5H38.5498L35.7093 16.0333V5.34445Z" fill="#D9D9D9"/>
<path d="M56.4045 9.04445L56.8103 5.75556H48.6945V18.5H52.3466V10.2778L52.3653 10.2506C52.9053 9.46817 53.2136 9.02126 53.9697 8.63334C55.4251 7.51614 55.7911 8.0291 56.4045 9.04445Z" fill="#D9D9D9"/>
<path d="M69.7955 7.40001L68.1723 5.75556H58.4334V18.0889L61.2739 18.5V11.5111C61.8511 9.75498 62.4065 9.11586 64.1144 9.04445C66.2076 9.1994 66.6547 9.8833 66.9549 11.5111V18.5H69.7955V7.40001Z" fill="#D9D9D9"/>
</svg>
